<?xml version="1.0" encoding="utf-8"?>
<!-- Generator: Adobe Illustrator 16.0.0, SVG Export Plug-In . SVG Version: 6.00 Build 0)  -->
<!DOCTYPE svg PUBLIC "-//W3C//DTD SVG 1.1//EN" "http://www.w3.org/Graphics/SVG/1.1/DTD/svg11.dtd">
<svg version="1.1" id="Layer_1" xmlns="http://www.w3.org/2000/svg" xmlns:xlink="http://www.w3.org/1999/xlink" x="0px" y="0px"
	 width="100px" height="100px" viewBox="-20 0 100 100" enable-background="new -20 0 100 100" xml:space="preserve">
<g id="Group_5398" transform="translate(-517 -1049)">
	<rect id="Rectangle_1848" x="517" y="1049" fill="none" width="60" height="60"/>
	<path id="Path_2466" d="M572.584,1077.814h-2.893c-0.512-11.913-10.052-21.454-21.965-21.965v-2.893
		c0-0.528-0.428-0.956-0.955-0.956c-0.528,0-0.956,0.428-0.956,0.956v2.893c-11.914,0.511-21.455,10.052-21.966,21.965h-2.892
		c-0.528,0-0.956,0.428-0.956,0.956s0.428,0.957,0.956,0.957h2.892c0.511,11.912,10.053,21.454,21.966,21.965v2.893
		c0,0.527,0.428,0.956,0.956,0.956c0.527,0,0.955-0.429,0.955-0.956v-2.893c11.914-0.511,21.455-10.053,21.965-21.965h2.894
		c0.528,0,0.956-0.429,0.956-0.957S573.113,1077.814,572.584,1077.814L572.584,1077.814z M567.779,1077.814h-1.771
		c-0.5-9.882-8.398-17.782-18.281-18.283v-1.77C558.584,1058.269,567.271,1066.957,567.779,1077.814L567.779,1077.814z
		 M560.754,1075.257c-0.527,0-0.956,0.428-0.956,0.956v1.6h-5.657v-0.7c0-0.528-0.429-0.956-0.957-0.956
		c-0.527,0-0.955,0.428-0.955,0.956l0,0v0.7h-1.918c-0.528,0-0.957,0.428-0.957,0.956s0.429,0.956,0.957,0.956l0,0h1.916v0.7
		c0,0.528,0.429,0.956,0.957,0.956c0.527,0,0.955-0.428,0.955-0.956v-0.7h5.658v1.601c0,0.528,0.428,0.956,0.956,0.956
		s0.956-0.428,0.956-0.956v-1.601h2.387c-0.495,8.828-7.543,15.876-16.371,16.371v-2.386h1.601c0.528,0,0.956-0.428,0.956-0.956
		c0-0.527-0.428-0.956-0.956-0.956h-1.601v-5.655h0.7c0.528,0,0.956-0.428,0.956-0.955c0-0.528-0.428-0.957-0.956-0.957h-0.7v-1.918
		c0-0.527-0.428-0.955-0.955-0.955c-0.528,0-0.956,0.428-0.956,0.955l0,0v1.918h-0.7c-0.528,0-0.956,0.429-0.956,0.957
		c0,0.527,0.428,0.955,0.956,0.955h0.7v5.658h-1.601c-0.528,0-0.956,0.428-0.956,0.956s0.428,0.956,0.956,0.956h1.601v2.387
		c-8.829-0.495-15.877-7.543-16.372-16.371h2.385v1.6c0,0.527,0.428,0.956,0.956,0.956c0.528,0,0.956-0.429,0.956-0.956v-1.6h5.658
		v0.699c0,0.528,0.428,0.956,0.956,0.956s0.956-0.428,0.956-0.956v-0.699h1.918c0.528,0,0.956-0.429,0.956-0.957
		s-0.428-0.956-0.956-0.956h-1.918v-0.7c0-0.528-0.428-0.956-0.956-0.956s-0.956,0.428-0.956,0.956v0.7h-5.658v-1.6
		c0-0.528-0.428-0.956-0.956-0.956c-0.528,0-0.956,0.428-0.956,0.956v1.6h-2.386c0.494-8.83,7.543-15.879,16.374-16.373v2.386
		h-1.601c-0.528,0-0.956,0.428-0.956,0.956c0,0.528,0.428,0.956,0.956,0.956h1.601v5.658h-0.7c-0.528,0-0.956,0.428-0.956,0.956
		s0.428,0.956,0.956,0.956l0,0h0.7v1.919c0,0.528,0.428,0.956,0.956,0.956c0.527,0,0.956-0.428,0.956-0.956v-1.919h0.699
		c0.528,0,0.956-0.428,0.956-0.956s-0.428-0.956-0.956-0.956h-0.699v-5.656h1.6c0.527,0,0.956-0.428,0.956-0.956
		c0-0.528-0.429-0.956-0.956-0.956l0,0h-1.6v-2.388c8.828,0.496,15.875,7.543,16.369,16.371h-2.386v-1.6
		c0.001-0.528-0.426-0.957-0.954-0.958C560.756,1075.256,560.755,1075.256,560.754,1075.257L560.754,1075.257z M545.814,1057.757
		v1.77c-9.887,0.498-17.79,8.401-18.288,18.287h-1.771c0.508-10.86,9.198-19.548,20.059-20.053V1057.757z M525.76,1079.723h1.767
		c0.5,9.883,8.4,17.783,18.284,18.282v1.771c-10.856-0.508-19.542-9.193-20.051-20.049L525.76,1079.723z M547.727,1099.78v-1.771
		c9.883-0.5,17.783-8.399,18.282-18.282h1.771C567.273,1090.584,558.586,1099.272,547.727,1099.78z"/>
</g>
<g>
	<path d="M23.958,77.761v1.271h-4.125v2.339H18.25v-2.339h-4.294v-1.271h7.028c0.228-1.151,0.252-2.039,0.252-2.878h-6.045v-1.271
		h7.604v0.972c0,0.899,0,1.906-0.228,3.178H23.958z M16.702,82.702h6.249v1.26h-7.832v-3.563h1.583V82.702z"/>
	<path d="M30.908,74.247c0,3.382-1.139,6.141-5.061,8.035l-0.828-1.247c2.819-1.355,4.042-3.082,4.27-5.529h-3.682v-1.259H30.908z
		 M34.194,73.096v11.046h-1.596V73.096H34.194z"/>
	<path d="M42.764,79.416c-2.279,0.42-4.846,0.468-6.74,0.479l-0.145-1.259c0.612,0,1.296,0,2.016-0.012v-2.147h1.547v2.087
		c1.092-0.048,2.194-0.132,3.227-0.275L42.764,79.416z M40.389,77.665c0.18-1.031,0.229-1.835,0.24-2.494h-4.114v-1.26h5.673v0.684
		c0,0.768,0,1.859-0.252,3.25L40.389,77.665z M39.069,82.702h6.129v1.26h-7.712V80.64h1.583V82.702z M46.17,76.466v1.308h-1.319
		v3.598h-1.583v-8.275h1.583v3.37H46.17z"/>
</g>
<rect x="-20" y="0.122" fill="none" width="100" height="99.998"/>
</svg>
