<?xml version="1.0" encoding="utf-8"?>
<!-- Generator: Adobe Illustrator 16.0.0, SVG Export Plug-In . SVG Version: 6.00 Build 0)  -->
<!DOCTYPE svg PUBLIC "-//W3C//DTD SVG 1.1//EN" "http://www.w3.org/Graphics/SVG/1.1/DTD/svg11.dtd">
<svg version="1.1" id="Layer_1" xmlns="http://www.w3.org/2000/svg" xmlns:xlink="http://www.w3.org/1999/xlink" x="0px" y="0px"
	 width="100px" height="100px" viewBox="-20 0 100 100" enable-background="new -20 0 100 100" xml:space="preserve">
<g id="그룹_4963" transform="translate(-1343 -1049)">
	<rect id="사각형_1849" x="1343.168" y="1049" fill="none" width="60" height="60"/>
	<g id="그룹_4955" transform="translate(-105.957 1569.125)">
		<path id="패스_734" d="M1470.322-470.333c0.497,0,0.9-0.403,0.9-0.899l0,0v-38.693c0-0.497-0.403-0.9-0.9-0.9l0,0h-7.649
			c-0.497,0-0.9,0.403-0.9,0.9l0,0v38.693c0,0.496,0.403,0.899,0.9,0.899l0,0H1470.322z M1463.573-509.026h5.849v36.893h-5.849
			V-509.026z"/>
		<path id="패스_735" d="M1476.168-503.627h13.048c0.497,0,0.9-0.403,0.9-0.9l0,0v-5.4c0-0.497-0.403-0.9-0.9-0.9l0,0h-13.048
			c-0.497,0-0.9,0.403-0.9,0.9l0,0v5.4C1475.268-504.03,1475.671-503.627,1476.168-503.627L1476.168-503.627z M1477.068-509.027
			h11.249v3.6h-11.249V-509.027z"/>
		<path id="패스_736" d="M1475.268-493.729c0,0.497,0.403,0.9,0.9,0.9l0,0h13.048c0.497,0,0.9-0.403,0.9-0.9l0,0v-5.4
			c0-0.497-0.403-0.9-0.9-0.9l0,0h-13.048c-0.497,0-0.9,0.403-0.9,0.9l0,0V-493.729z M1477.068-498.229h11.249v3.6h-11.249V-498.229
			z"/>
		<path id="패스_737" d="M1475.268-482.932c0,0.498,0.403,0.9,0.9,0.9l0,0h13.048c0.497,0,0.9-0.402,0.9-0.9l0,0v-5.399
			c0-0.497-0.403-0.899-0.9-0.899l0,0h-13.048c-0.497,0-0.9,0.402-0.9,0.899l0,0V-482.932z M1477.068-487.432h11.249v3.601h-11.249
			V-487.432z"/>
		<path id="패스_738" d="M1475.268-472.133c0,0.497,0.403,0.9,0.9,0.9l0,0h13.048c0.497,0,0.9-0.403,0.9-0.9l0,0v-5.4
			c0-0.497-0.403-0.9-0.9-0.9l0,0h-13.048c-0.497,0-0.9,0.403-0.9,0.9l0,0V-472.133z M1477.068-476.633h11.249v3.6h-11.249V-476.633
			z"/>
		<path id="패스_739" d="M1504.068-511.726h-6.4c-0.521-3.112-3.211-5.395-6.367-5.4h-30.717
			c-3.567,0.004-6.458,2.896-6.462,6.463v39.879c0,0.497,0.403,0.9,0.9,0.9l0,0c0.497,0,0.9-0.403,0.9-0.9l0,0v-39.879
			c0.003-2.574,2.089-4.66,4.663-4.663h30.717c2.574,0.003,4.66,2.089,4.663,4.663v39.879c0,0.497,0.403,0.9,0.9,0.9l0,0
			c0.497,0,0.9-0.403,0.9-0.9l0,0v-16.646h6.299c0.498,0,0.9-0.403,0.9-0.9l0,0v-22.5
			C1504.963-511.324,1504.563-511.725,1504.068-511.726z M1503.168-489.227h-5.4v-20.699h5.4V-489.227z"/>
		<path id="패스_740" d="M1504.068-466.284h-49.042c-0.497,0-0.9,0.403-0.9,0.9l0,0c0,0.497,0.403,0.899,0.9,0.899l0,0h49.042
			c0.496,0,0.899-0.402,0.899-0.899l0,0C1504.968-465.881,1504.564-466.284,1504.068-466.284L1504.068-466.284z"/>
	</g>
</g>
<g>
	<path d="M29.658,81.887v1.283H19.644v-1.283h4.186v-1.271c-1.835-0.168-2.962-0.936-2.962-2.122c0-1.355,1.451-2.159,3.742-2.159
		c2.315,0,3.754,0.804,3.754,2.159c0,1.187-1.115,1.942-2.95,2.122v1.271H29.658z M29.19,75.866h-9.115v-1.259h3.754v-1.271h1.583
		v1.271h3.778V75.866z M24.609,79.416c1.391,0,2.135-0.287,2.135-0.923c0-0.624-0.744-0.936-2.135-0.936
		c-1.367,0-2.111,0.312-2.111,0.936C22.498,79.129,23.242,79.416,24.609,79.416z"/>
	<path d="M35.793,78.625c-1.271,0.216-2.363,0.252-3.922,0.252h-0.756V73.84h4.149v1.223h-2.65v0.684h2.267v1.151h-2.267v0.756
		c1.14-0.012,2.027-0.072,3.047-0.228L35.793,78.625z M40.446,83.002v1.188h-7.832v-2.926h5.925v-0.588h-5.948v-1.199h7.508v2.89
		h-5.925v0.636H40.446z M36.429,76.802h-1.08v-1.247h1.08v-2.147h1.475v5.602h-1.475V76.802z M40.099,79.08H38.6v-5.841h1.499V79.08
		z"/>
</g>
<rect x="-19.832" y="0.242" fill="none" width="100" height="99.998"/>
</svg>
