<?xml version="1.0" encoding="utf-8"?>
<!-- Generator: Adobe Illustrator 16.0.0, SVG Export Plug-In . SVG Version: 6.00 Build 0)  -->
<!DOCTYPE svg PUBLIC "-//W3C//DTD SVG 1.1//EN" "http://www.w3.org/Graphics/SVG/1.1/DTD/svg11.dtd">
<svg version="1.1" id="Layer_1" xmlns="http://www.w3.org/2000/svg" xmlns:xlink="http://www.w3.org/1999/xlink" x="0px" y="0px"
	 width="100px" height="100px" viewBox="-20 0 100 100" enable-background="new -20 0 100 100" xml:space="preserve">
<g id="그룹_4961" transform="translate(-1107 -1049)">
	<rect id="사각형_1846" x="1107" y="1049" fill="none" width="60" height="60"/>
	<g id="그룹_4953" transform="translate(-34.622 1570.14)">
		<path id="패스_727" d="M1191.017-491.369h-3.776l0.015-4.631h7.346c0.498,0,0.9-0.403,0.9-0.9l0,0v-6.244h-1.8v5.344h-6.44
			l0.027-8.533c0.008-1.358-0.529-2.662-1.491-3.62c-0.956-0.963-2.258-1.504-3.614-1.5h-20.801c-1.356-0.003-2.657,0.538-3.613,1.5
			c-0.96,0.957-1.498,2.258-1.493,3.614l0.01,8.543h-6.228v-5.981h-1.8v6.881c0,0.497,0.403,0.9,0.9,0.9l0,0h7.129l0.005,4.631
			h-3.737c-3,0-4.934,2.29-4.934,5.834v16.051h5.1c0.445,2.881,2.923,5.01,5.839,5.016c2.916-0.006,5.395-2.134,5.84-5.016h14.766
			c0.445,2.881,2.923,5.01,5.839,5.016c2.916-0.006,5.394-2.134,5.839-5.016h5.1v-16.051
			C1195.951-489.079,1194.015-491.369,1191.017-491.369z M1158.563-466.269c-1.924-0.003-3.59-1.338-4.013-3.215h8.027
			C1162.155-467.607,1160.488-466.272,1158.563-466.269L1158.563-466.269z M1185.008-466.269c-1.924-0.003-3.59-1.338-4.013-3.215
			h8.025C1188.599-467.607,1186.933-466.272,1185.008-466.269L1185.008-466.269z M1194.151-471.285h-44.729v-3.699h44.729V-471.285z
			 M1149.422-476.779v-8.756c0-0.947,0.226-4.034,3.134-4.034h5.538l-0.018-16.775c-0.004-0.878,0.345-1.721,0.968-2.341
			c0.619-0.623,1.461-0.972,2.339-0.969h20.8c0.879-0.002,1.723,0.348,2.342,0.971c0.622,0.621,0.97,1.466,0.965,2.345l-0.053,16.77
			h5.582c2.907,0,3.134,3.087,3.134,4.034v8.756H1149.422z"/>
		<path id="패스_728" d="M1181.373-505.527H1162.2c-0.497,0-0.9,0.403-0.9,0.899c0,0,0,0,0,0v10.966c0,0.497,0.403,0.9,0.9,0.9
			l0,0h19.173c0.497,0,0.899-0.403,0.899-0.9l0,0v-10.966C1182.272-505.124,1181.87-505.527,1181.373-505.527z M1180.474-494.561
			H1163.1v-9.166h17.374V-494.561z"/>
		<path id="패스_729" d="M1150.059-511.236c-0.053-2.209,1.691-4.045,3.9-4.105h35.851c2.209,0.06,3.953,1.896,3.899,4.105v2.855
			h1.8v-2.855c0.051-3.202-2.498-5.84-5.699-5.9h-35.851c-3.201,0.061-5.75,2.699-5.7,5.9v2.855h1.801L1150.059-511.236z"/>
		<path id="패스_730" d="M1156.541-486.8c-2.129-0.138-3.967,1.473-4.112,3.6c-0.138,2.129,1.473,3.967,3.601,4.111
			c0.087,0.006,0.172,0.008,0.258,0.008c2.032-0.004,3.715-1.579,3.853-3.606l0,0C1160.279-484.817,1158.669-486.656,1156.541-486.8
			z M1156.148-480.886c-1.139-0.077-1.999-1.062-1.924-2.199c0.074-1.084,0.973-1.926,2.059-1.928c0.046,0,0.092,0,0.138,0
			c1.138,0.078,1.998,1.063,1.923,2.2C1158.268-481.675,1157.285-480.814,1156.148-480.886L1156.148-480.886z"/>
		<path id="패스_731" d="M1187.544-486.8c-2.129-0.14-3.969,1.472-4.111,3.6c-0.07,1.023,0.271,2.031,0.948,2.801
			c0.674,0.772,1.628,1.244,2.651,1.31c0.088,0.005,0.175,0.009,0.262,0.009c0.935,0,1.838-0.34,2.539-0.957
			c0.773-0.674,1.245-1.629,1.311-2.651C1191.281-484.818,1189.671-486.656,1187.544-486.8z M1189.345-482.808
			c-0.035,0.547-0.287,1.056-0.701,1.415c-0.41,0.362-0.948,0.545-1.494,0.507c-0.547-0.035-1.057-0.287-1.417-0.699
			c-0.363-0.412-0.546-0.953-0.507-1.5c0.074-1.084,0.973-1.926,2.059-1.928c0.045,0,0.091,0,0.138,0
			c1.138,0.078,1.998,1.063,1.923,2.2V-482.808z"/>
		<rect id="사각형_1833" x="1165.175" y="-484.079" width="13.229" height="1.801"/>
	</g>
</g>
<g>
	<path d="M16.11,80.472h-2.314v3.61h-1.607v-3.61H9.97v3.61H8.375v-3.61H6.108v-1.283H16.11V80.472z M7.091,75.891
		c0-1.499,1.631-2.471,3.994-2.471c2.351,0,3.994,0.972,3.994,2.471c0,1.511-1.643,2.471-3.994,2.471
		C8.723,78.361,7.091,77.401,7.091,75.891z M8.71,75.891c0,0.791,0.924,1.211,2.375,1.211c1.439,0,2.362-0.42,2.362-1.211
		c0-0.779-0.923-1.212-2.362-1.212C9.634,74.679,8.71,75.111,8.71,75.891z"/>
	<path d="M27.126,78.745v1.235h-9.99v-1.235h4.197v-0.684h-2.95v-4.726h7.604v1.199h-6.032v0.576h5.78v1.151h-5.78v0.6h6.116v1.199
		h-3.154v0.684H27.126z M25.952,82.283c0,1.175-1.403,1.811-3.838,1.811c-2.423,0-3.826-0.636-3.826-1.811
		c0-1.188,1.403-1.812,3.826-1.812C24.548,80.472,25.952,81.096,25.952,82.283z M24.356,82.283c0-0.456-0.707-0.647-2.242-0.647
		c-1.523,0-2.231,0.191-2.231,0.647c0,0.455,0.708,0.659,2.231,0.659C23.649,82.942,24.356,82.738,24.356,82.283z"/>
	<path d="M30.814,73.408h1.175l-2.974,11.837H27.84L30.814,73.408z"/>
	<path d="M42.846,78.409v1.259h-4.103v1.896h-1.619v-1.896h-4.281v-1.259H42.846z M33.862,75.543c0-1.392,1.595-2.291,3.97-2.291
		c2.387,0,3.97,0.899,3.97,2.291c0,1.403-1.583,2.29-3.97,2.29C35.457,77.833,33.862,76.946,33.862,75.543z M35.613,82.643h6.141
		v1.26h-7.748v-3.311h1.607V82.643z M35.577,75.543c0,0.684,0.876,1.031,2.255,1.031c1.403,0,2.267-0.348,2.267-1.031
		s-0.863-1.032-2.267-1.032C36.453,74.511,35.577,74.859,35.577,75.543z"/>
	<path d="M53.861,78.313v1.259h-9.979v-1.259h4.186v-1.355h1.583v1.355H53.861z M52.746,77.617
		c-1.859-0.275-3.202-1.043-3.897-2.135c-0.696,1.08-2.039,1.859-3.887,2.135l-0.575-1.235c2.471-0.3,3.658-1.559,3.658-2.806
		v-0.324h1.619v0.324c0,1.283,1.163,2.506,3.657,2.806L52.746,77.617z M52.687,82.139c0,1.26-1.439,1.955-3.838,1.955
		c-2.399,0-3.826-0.695-3.826-1.955c0-1.259,1.427-1.967,3.826-1.967C51.247,80.172,52.687,80.88,52.687,82.139z M51.079,82.139
		c0-0.552-0.744-0.779-2.23-0.779c-1.487,0-2.231,0.228-2.231,0.779c0,0.54,0.744,0.78,2.231,0.78
		C50.335,82.919,51.079,82.679,51.079,82.139z"/>
</g>
<rect x="-20" y="0.063" fill="none" width="100" height="99.998"/>
</svg>
