<?xml version="1.0" encoding="utf-8"?>
<!-- Generator: Adobe Illustrator 16.0.0, SVG Export Plug-In . SVG Version: 6.00 Build 0)  -->
<!DOCTYPE svg PUBLIC "-//W3C//DTD SVG 1.1//EN" "http://www.w3.org/Graphics/SVG/1.1/DTD/svg11.dtd">
<svg version="1.1" id="Layer_1" xmlns="http://www.w3.org/2000/svg" xmlns:xlink="http://www.w3.org/1999/xlink" x="0px" y="0px"
	 width="100px" height="100px" viewBox="-20 0 100 100" enable-background="new -20 0 100 100" xml:space="preserve">
<g id="그룹_4962" transform="translate(-1225 -1049)">
	<rect id="사각형_1847" x="1225" y="1049" fill="none" width="60" height="60"/>
	<g id="그룹_4954" transform="translate(-70.341 1570.356)">
		<path id="패스_732" d="M1350.349-511.817c-2.853-2.91-6.758-4.547-10.833-4.539c-4.069-0.008-7.97,1.624-10.819,4.527
			l-3.11,3.028l-3.1-3.016c-2.853-2.91-6.758-4.546-10.833-4.539c-4.075-0.007-7.98,1.629-10.833,4.539
			c-3.306,3.342-4.919,8.003-4.386,12.674c0.053,0.495,0.496,0.853,0.99,0.801c0.001,0,0.002,0,0.003,0
			c0.494-0.052,0.853-0.496,0.801-0.99c0-0.001,0-0.002,0-0.003c-0.473-4.131,0.954-8.254,3.878-11.211
			c2.516-2.565,5.959-4.007,9.552-4c3.599-0.005,7.048,1.443,9.564,4.016l3.737,3.639c0.35,0.341,0.906,0.341,1.256,0l3.75-3.651
			c2.516-2.565,5.96-4.007,9.552-4c3.594-0.007,7.037,1.435,9.553,4c5.275,5.375,5.275,13.985,0,19.36l-23.482,23.759
			l-19.745-19.978c-0.35-0.354-0.919-0.356-1.272-0.007h0c-0.353,0.35-0.357,0.918-0.008,1.271l20.386,20.625
			c0.169,0.172,0.399,0.268,0.64,0.269c0.241-0.001,0.471-0.097,0.641-0.269l24.123-24.406
			C1356.321-495.997,1356.32-505.739,1350.349-511.817z"/>
		<path id="패스_733" d="M1310.972-493.462l1.787-2.085l4.811,10.423c0.149,0.336,0.49,0.544,0.856,0.522
			c0.365-0.016,0.684-0.249,0.808-0.593l4.948-13.7l5.5,17.271c0.105,0.331,0.392,0.572,0.736,0.619
			c0.04,0.006,0.08,0.008,0.12,0.008c0.305,0,0.589-0.153,0.755-0.408l6.749-10.348c0.271-0.416,0.154-0.974-0.262-1.245
			c-0.416-0.271-0.974-0.154-1.246,0.262l-5.713,8.76l-5.724-17.989c-0.117-0.368-0.455-0.62-0.84-0.627
			c-0.386-0.008-0.733,0.231-0.864,0.594l-5.1,14.135l-4.48-9.707c-0.128-0.279-0.39-0.473-0.694-0.515s-0.608,0.073-0.807,0.306
			l-2.43,2.835h-9.034c-0.497,0-0.9,0.403-0.9,0.9l0,0c0,0.497,0.403,0.9,0.9,0.9l0,0h9.448
			C1310.557-493.147,1310.803-493.263,1310.972-493.462z"/>
	</g>
</g>
<g>
	<path d="M19.763,80.718c1.943,0,4.654-0.012,6.98-0.359l0.096,1.139c-2.375,0.48-4.965,0.504-6.872,0.504L19.763,80.718z
		 M26.312,76.628c0,1.596-1.319,2.723-3.046,2.723s-3.035-1.127-3.035-2.723c0-1.583,1.308-2.723,3.035-2.723
		S26.312,75.045,26.312,76.628z M21.766,76.628c0,0.863,0.648,1.367,1.5,1.367s1.499-0.504,1.499-1.367s-0.647-1.367-1.499-1.367
		S21.766,75.765,21.766,76.628z M28.926,73.162v11.082h-1.583V73.162H28.926z"/>
	<path d="M40.758,81.713v1.296H30.743v-1.296h2.542v-1.679h-1.379v-3.718h6.165v-1.176h-6.177v-1.259h7.735v3.67h-6.152v1.211h6.404
		v1.271h-1.547v1.679H40.758z M34.845,81.713h1.931v-1.679h-1.931V81.713z"/>
</g>
<rect x="-19.761" y="0.188" fill="none" width="100" height="99.998"/>
<rect x="-19.761" y="-0.187" fill="none" width="100" height="99.998"/>
</svg>
