<?xml version="1.0" encoding="utf-8"?>
<!-- Generator: Adobe Illustrator 16.0.0, SVG Export Plug-In . SVG Version: 6.00 Build 0)  -->
<!DOCTYPE svg PUBLIC "-//W3C//DTD SVG 1.1//EN" "http://www.w3.org/Graphics/SVG/1.1/DTD/svg11.dtd">
<svg version="1.1" id="Layer_1" xmlns="http://www.w3.org/2000/svg" xmlns:xlink="http://www.w3.org/1999/xlink" x="0px" y="0px"
	 width="100px" height="100px" viewBox="-20 0 100 100" enable-background="new -20 0 100 100" xml:space="preserve">
<g id="그룹_4959" transform="translate(-871 -1049)">
	<rect id="사각형_1843" x="871" y="1049" fill="none" width="60" height="60"/>
	<g id="그룹_4952" transform="translate(191.02 1569.299)">
		<path id="패스_722" d="M734.021-504.61v37.158c-0.001,1.293-1.049,2.341-2.341,2.343h-42.558
			c-1.293-0.002-2.341-1.049-2.342-2.343v-37.158h-1.8v37.158c0.003,2.286,1.855,4.14,4.142,4.142h42.558
			c2.286-0.002,4.139-1.855,4.141-4.142v-37.158H734.021z"/>
		<path id="패스_723" d="M689.859-470.024c0.152,0.107,0.334,0.166,0.52,0.166c0.102,0,0.204-0.018,0.3-0.051
			c0.081-0.029,8.219-2.801,19.505,0.023c0.017,0,0.033,0,0.05,0.006c0.017,0.006,0.062,0.01,0.094,0.014
			c0.038,0.002,0.075,0.002,0.113,0c0.032,0,0.063-0.006,0.094-0.01c0.037-0.006,0.076-0.015,0.113-0.025
			c0.018-0.004,0.034-0.006,0.051-0.012c0.082-0.027,8.256-2.789,19.508,0.024c0.07,0.018,0.145,0.026,0.218,0.026
			c0.2,0,0.396-0.066,0.554-0.19c0.219-0.171,0.346-0.433,0.346-0.709v-37.254c0-0.366-0.221-0.695-0.56-0.833
			c-1.138-0.463-2.303-0.854-3.489-1.171v-7.381c0-0.323-0.172-0.621-0.451-0.781c-0.279-0.161-0.622-0.161-0.9,0l-15.659,9.145
			c-11.282-4.375-19.931,0.029-20.3,0.222c-0.297,0.156-0.483,0.464-0.482,0.8v37.254
			C689.481-470.468,689.622-470.193,689.859-470.024z M726.888-481.568c0.241-0.168,0.385-0.443,0.385-0.737v-25.835
			c0.753,0.216,1.506,0.457,2.249,0.741v35.5c-5.13-1.184-10.437-1.385-15.642-0.588L726.888-481.568z M711.526-507.686
			l13.947-8.146v33.057l-13.947,9.74V-507.686z M691.279-507.435c5.859-2.3,12.373-2.288,18.222,0.035v35.5
			c-3.123-0.703-6.314-1.062-9.515-1.067c-2.933-0.022-5.857,0.315-8.707,1.008V-507.435z"/>
	</g>
</g>
<g>
	<path d="M25.977,75.267h-6.5V74.02h2.447v-1.031h1.595v1.031h2.458V75.267z M22.727,79.681c-1.583,0-2.71-0.828-2.71-2.039
		c0-1.199,1.127-2.027,2.71-2.027c1.595,0,2.71,0.828,2.71,2.027C25.437,78.853,24.321,79.681,22.727,79.681z M20.808,80.424h7.364
		v3.682h-1.583v-2.41h-5.781V80.424z M22.727,78.481c0.708,0,1.199-0.276,1.199-0.84c0-0.552-0.492-0.828-1.199-0.828
		c-0.72,0-1.2,0.276-1.2,0.828C21.527,78.205,22.007,78.481,22.727,78.481z M29.635,77.197h-1.463v2.771h-1.583v-6.92h1.583v2.843
		h1.463V77.197z"/>
	<path d="M40.519,81.491v1.271H30.516v-1.271h2.1v-3.49h1.559v3.49h1.175v-3.49h1.548v3.49H40.519z M37.651,80.017
		c0.36-2.003,0.372-3.49,0.372-4.762h-6.536v-1.26h8.119v1.067c0,1.355,0,2.879-0.371,5.109L37.651,80.017z"/>
</g>
<rect x="-20" y="0.063" fill="none" width="100" height="99.998"/>
</svg>
