<?xml version="1.0" encoding="utf-8"?>
<!-- Generator: Adobe Illustrator 16.0.0, SVG Export Plug-In . SVG Version: 6.00 Build 0)  -->
<!DOCTYPE svg PUBLIC "-//W3C//DTD SVG 1.1//EN" "http://www.w3.org/Graphics/SVG/1.1/DTD/svg11.dtd">
<svg version="1.1" id="Layer_1" xmlns="http://www.w3.org/2000/svg" xmlns:xlink="http://www.w3.org/1999/xlink" x="0px" y="0px"
	 width="100px" height="100px" viewBox="-20 0 100 100" enable-background="new -20 0 100 100" xml:space="preserve">
<g id="그룹_4957" transform="translate(-635 -1049)">
	<rect id="사각형_1845" x="635" y="1052" fill="none" width="60" height="60"/>
	<g id="그룹_4950" transform="translate(260.764 1567.979)">
		<path id="패스_714" d="M428.035-510.6H381.2c-2.083,0.003-3.772,1.691-3.775,3.775v30.092c0.003,2.084,1.691,3.772,3.775,3.775
			H399l-1.033,9.275h-3.4c-0.532,0-0.964,0.432-0.964,0.964s0.432,0.964,0.964,0.964h20.095c0.533,0,0.965-0.432,0.965-0.964
			s-0.432-0.964-0.965-0.964h-3.4l-1.032-9.275h17.8c2.084-0.003,3.773-1.691,3.775-3.775v-30.092
			C431.802-508.907,430.117-510.594,428.035-510.6z M409.325-463.682h-9.414l1.034-9.275h7.348L409.325-463.682z M429.882-476.733
			c-0.002,1.02-0.828,1.847-1.849,1.848H381.2c-1.02-0.001-1.846-0.828-1.847-1.848v-30.092c0-1.021,0.827-1.847,1.847-1.848h46.833
			c1.021,0.001,1.848,0.828,1.848,1.848L429.882-476.733z"/>
		<path id="패스_715" d="M398.112-495.55c-0.016-0.069-0.04-0.136-0.071-0.2c0-0.006,0-0.015-0.008-0.023l-3.364-6.726
			c-0.163-0.327-0.497-0.533-0.861-0.532c-0.365,0-0.698,0.206-0.862,0.532l-3.364,6.726c0,0.008,0,0.016-0.009,0.023
			c-0.03,0.064-0.054,0.131-0.071,0.2v0.008c-0.014,0.066-0.02,0.133-0.02,0.2v13.826c0,0.532,0.432,0.964,0.964,0.964h6.726
			c0.532,0,0.964-0.432,0.964-0.964v-13.826c0-0.067-0.006-0.134-0.02-0.2L398.112-495.55z M393.812-499.915l1.8,3.607h-3.61
			L393.812-499.915z M396.212-482.482h-4.8v-11.9h4.8V-482.482z"/>
		<path id="패스_716" d="M420.863-503.616h-19.806c-0.532-0.001-0.963,0.43-0.964,0.962c0,0,0,0,0,0.001v8.969
			c0,0.532,0.432,0.964,0.964,0.964h19.805c0.532,0,0.964-0.432,0.964-0.964v-8.969
			C421.826-503.185,421.394-503.616,420.863-503.616z M419.899-494.647h-17.878v-7.041h1.062v4.268h1.924v-4.268h1.435v2.4h1.928
			v-2.4h1.81v4.268h1.929v-4.268h1.435v2.4h1.928v-2.4h1.438v4.268h1.928v-4.268h1.062L419.899-494.647z"/>
	</g>
</g>
<g>
	<path d="M22.691,75.913c0,1.847,0.54,3.706,2.135,4.642l-0.924,1.151c-0.983-0.576-1.607-1.535-1.967-2.699
		c-0.384,1.26-1.031,2.339-2.027,2.963l-0.936-1.163c1.607-1.02,2.183-2.999,2.183-4.894v-0.54h-1.775V74.09h4.917v1.283h-1.607
		V75.913z M24.934,73.166h1.475v10.362h-1.475v-5.492h-1.403v-1.284h1.403V73.166z M28.664,72.975v11.046h-1.5V72.975H28.664z"/>
	<path d="M40.231,81.466v1.283H30.229v-1.283h4.209v-2.435h1.583v2.435H40.231z M30.625,78.264c2.314-0.36,3.598-1.739,3.741-3.179
		h-3.31v-1.259h8.323v1.259h-3.311c0.144,1.439,1.428,2.771,3.802,3.119l-0.6,1.247c-1.942-0.348-3.346-1.271-4.042-2.566
		c-0.683,1.319-2.074,2.278-3.993,2.626L30.625,78.264z"/>
</g>
<rect x="-20.287" y="0.001" fill="none" width="100" height="99.998"/>
</svg>
