<?xml version="1.0" encoding="utf-8"?>
<!-- Generator: Adobe Illustrator 16.0.0, SVG Export Plug-In . SVG Version: 6.00 Build 0)  -->
<!DOCTYPE svg PUBLIC "-//W3C//DTD SVG 1.1//EN" "http://www.w3.org/Graphics/SVG/1.1/DTD/svg11.dtd">
<svg version="1.1" id="Layer_1" xmlns="http://www.w3.org/2000/svg" xmlns:xlink="http://www.w3.org/1999/xlink" x="0px" y="0px"
	 width="100px" height="100px" viewBox="-20 0 100 100" enable-background="new -20 0 100 100" xml:space="preserve">
<g id="그룹_4958" transform="translate(-753 -1049)">
	<rect id="사각형_1844" x="752.68" y="1049" fill="none" width="60" height="60"/>
	<g id="그룹_4951" transform="translate(226.133 1569.801)">
		<path id="패스_717" d="M531.18-463.808h9v-18h-9V-463.808z M532.98-480.008h5.4v14.4h-5.4V-480.008z"/>
		<path id="패스_718" d="M559.08-463.808h9V-517.8h-9V-463.808z M560.88-516h5.399v50.393h-5.399V-516z"/>
		<path id="패스_719" d="M573.025-502.5v38.7h9v-38.7H573.025z M580.226-465.6h-5.4v-35.1h5.4V-465.6z"/>
		<path id="패스_720" d="M545.131-463.808h9v-30.6h-9V-463.808z M546.931-492.608h5.4v27h-5.4V-492.608z"/>
		<path id="패스_721" d="M547.83-509.708v1.8h3.677l-20.96,20.96l1.271,1.271l20.96-20.96v3.677h1.801v-6.749H547.83z"/>
	</g>
</g>
<text transform="matrix(1 0 0 1 18.6401 83)" font-family="'NotoSansCJKkr-Bold-KSCpc-EUC-H'" font-size="12">금융</text>
<rect x="-20.32" fill="none" width="100" height="99.998"/>
</svg>
